<svg xmlns="http://www.w3.org/2000/svg" xmlns:xlink="http://www.w3.org/1999/xlink" width="273" zoomAndPan="magnify" viewBox="0 0 204.75 63.749997" height="85" preserveAspectRatio="xMidYMid meet" version="1.0"><defs><g/><clipPath id="4801792df1"><path d="M 0.378906 10.957031 L 44.453125 10.957031 L 44.453125 49 L 0.378906 49 Z M 0.378906 10.957031 " clip-rule="nonzero"/></clipPath></defs><g clip-path="url(#4801792df1)"><path fill="#737373" d="M 22.359375 10.957031 L 0.414062 48.964844 L 21.667969 48.964844 L 27.4375 38.972656 L 24.195312 34.0625 L 22.878906 36.339844 L 18.628906 43.699219 L 9.535156 43.699219 L 22.398438 21.421875 L 35.433594 43.625 L 29.171875 43.625 L 26.539062 48.890625 L 44.628906 48.890625 Z M 22.359375 10.957031 " fill-opacity="1" fill-rule="nonzero"/></g><g fill="#737373" fill-opacity="1"><g transform="translate(52.531252, 40.414135)"><g><path d="M 13.640625 -4.328125 L 5.15625 -4.328125 L 3.59375 0 L 0.921875 0 L 7.953125 -19.328125 L 10.875 -19.328125 L 17.875 0 L 15.203125 0 Z M 12.90625 -6.390625 L 9.40625 -16.203125 L 5.890625 -6.390625 Z M 12.90625 -6.390625 "/></g></g></g><g fill="#737373" fill-opacity="1"><g transform="translate(71.326973, 40.414135)"><g><path d="M 3.453125 -17.765625 C 2.972656 -17.765625 2.566406 -17.929688 2.234375 -18.265625 C 1.898438 -18.597656 1.734375 -19.007812 1.734375 -19.5 C 1.734375 -19.976562 1.898438 -20.382812 2.234375 -20.71875 C 2.566406 -21.050781 2.972656 -21.21875 3.453125 -21.21875 C 3.921875 -21.21875 4.316406 -21.050781 4.640625 -20.71875 C 4.960938 -20.382812 5.125 -19.976562 5.125 -19.5 C 5.125 -19.007812 4.960938 -18.597656 4.640625 -18.265625 C 4.316406 -17.929688 3.921875 -17.765625 3.453125 -17.765625 Z M 4.6875 -15.28125 L 4.6875 0 L 2.140625 0 L 2.140625 -15.28125 Z M 4.6875 -15.28125 "/></g></g></g><g fill="#737373" fill-opacity="1"><g transform="translate(78.187135, 40.414135)"><g><path d="M 4.6875 -12.796875 C 5.132812 -13.671875 5.769531 -14.347656 6.59375 -14.828125 C 7.425781 -15.316406 8.4375 -15.5625 9.625 -15.5625 L 9.625 -12.9375 L 8.953125 -12.9375 C 6.109375 -12.9375 4.6875 -11.394531 4.6875 -8.3125 L 4.6875 0 L 2.140625 0 L 2.140625 -15.28125 L 4.6875 -15.28125 Z M 4.6875 -12.796875 "/></g></g></g><g fill="#737373" fill-opacity="1"><g transform="translate(88.588917, 40.414135)"><g><path d="M 4.6875 -20.640625 L 4.6875 0 L 2.140625 0 L 2.140625 -20.640625 Z M 4.6875 -20.640625 "/></g></g></g><g fill="#737373" fill-opacity="1"><g transform="translate(95.449079, 40.414135)"><g><path d="M 1.203125 -7.703125 C 1.203125 -9.265625 1.515625 -10.632812 2.140625 -11.8125 C 2.773438 -12.988281 3.644531 -13.898438 4.75 -14.546875 C 5.863281 -15.203125 7.097656 -15.53125 8.453125 -15.53125 C 9.785156 -15.53125 10.945312 -15.242188 11.9375 -14.671875 C 12.925781 -14.097656 13.660156 -13.375 14.140625 -12.5 L 14.140625 -15.28125 L 16.703125 -15.28125 L 16.703125 0 L 14.140625 0 L 14.140625 -2.84375 C 13.640625 -1.945312 12.890625 -1.207031 11.890625 -0.625 C 10.898438 -0.0390625 9.742188 0.25 8.421875 0.25 C 7.066406 0.25 5.835938 -0.0820312 4.734375 -0.75 C 3.640625 -1.414062 2.773438 -2.351562 2.140625 -3.5625 C 1.515625 -4.78125 1.203125 -6.160156 1.203125 -7.703125 Z M 14.140625 -7.671875 C 14.140625 -8.828125 13.90625 -9.832031 13.4375 -10.6875 C 12.976562 -11.539062 12.351562 -12.191406 11.5625 -12.640625 C 10.769531 -13.097656 9.898438 -13.328125 8.953125 -13.328125 C 8.003906 -13.328125 7.140625 -13.101562 6.359375 -12.65625 C 5.578125 -12.21875 4.953125 -11.566406 4.484375 -10.703125 C 4.023438 -9.847656 3.796875 -8.847656 3.796875 -7.703125 C 3.796875 -6.523438 4.023438 -5.503906 4.484375 -4.640625 C 4.953125 -3.773438 5.578125 -3.113281 6.359375 -2.65625 C 7.140625 -2.207031 8.003906 -1.984375 8.953125 -1.984375 C 9.898438 -1.984375 10.769531 -2.207031 11.5625 -2.65625 C 12.351562 -3.113281 12.976562 -3.773438 13.4375 -4.640625 C 13.90625 -5.503906 14.140625 -6.515625 14.140625 -7.671875 Z M 14.140625 -7.671875 "/></g></g></g><g fill="#737373" fill-opacity="1"><g transform="translate(114.300565, 40.414135)"><g><path d="M 9.59375 -15.5625 C 11.457031 -15.5625 12.960938 -15 14.109375 -13.875 C 15.265625 -12.75 15.84375 -11.128906 15.84375 -9.015625 L 15.84375 0 L 13.328125 0 L 13.328125 -8.640625 C 13.328125 -10.171875 12.945312 -11.335938 12.1875 -12.140625 C 11.425781 -12.953125 10.382812 -13.359375 9.0625 -13.359375 C 7.726562 -13.359375 6.664062 -12.9375 5.875 -12.09375 C 5.082031 -11.257812 4.6875 -10.046875 4.6875 -8.453125 L 4.6875 0 L 2.140625 0 L 2.140625 -15.28125 L 4.6875 -15.28125 L 4.6875 -13.109375 C 5.1875 -13.890625 5.867188 -14.492188 6.734375 -14.921875 C 7.597656 -15.347656 8.550781 -15.5625 9.59375 -15.5625 Z M 9.59375 -15.5625 "/></g></g></g><g fill="#737373" fill-opacity="1"><g transform="translate(132.14813, 40.414135)"><g><path d="M 8.453125 -15.53125 C 9.773438 -15.53125 10.929688 -15.242188 11.921875 -14.671875 C 12.921875 -14.097656 13.660156 -13.375 14.140625 -12.5 L 14.140625 -15.28125 L 16.703125 -15.28125 L 16.703125 0.328125 C 16.703125 1.722656 16.40625 2.960938 15.8125 4.046875 C 15.21875 5.140625 14.367188 5.992188 13.265625 6.609375 C 12.160156 7.222656 10.875 7.53125 9.40625 7.53125 C 7.394531 7.53125 5.71875 7.054688 4.375 6.109375 C 3.039062 5.160156 2.253906 3.867188 2.015625 2.234375 L 4.515625 2.234375 C 4.796875 3.160156 5.375 3.90625 6.25 4.46875 C 7.125 5.039062 8.175781 5.328125 9.40625 5.328125 C 10.789062 5.328125 11.925781 4.890625 12.8125 4.015625 C 13.695312 3.140625 14.140625 1.910156 14.140625 0.328125 L 14.140625 -2.875 C 13.640625 -1.976562 12.894531 -1.234375 11.90625 -0.640625 C 10.925781 -0.046875 9.773438 0.25 8.453125 0.25 C 7.097656 0.25 5.863281 -0.0820312 4.75 -0.75 C 3.644531 -1.414062 2.773438 -2.351562 2.140625 -3.5625 C 1.515625 -4.78125 1.203125 -6.160156 1.203125 -7.703125 C 1.203125 -9.265625 1.515625 -10.632812 2.140625 -11.8125 C 2.773438 -12.988281 3.644531 -13.898438 4.75 -14.546875 C 5.863281 -15.203125 7.097656 -15.53125 8.453125 -15.53125 Z M 14.140625 -7.671875 C 14.140625 -8.828125 13.90625 -9.832031 13.4375 -10.6875 C 12.976562 -11.539062 12.351562 -12.191406 11.5625 -12.640625 C 10.769531 -13.097656 9.898438 -13.328125 8.953125 -13.328125 C 8.003906 -13.328125 7.140625 -13.101562 6.359375 -12.65625 C 5.578125 -12.21875 4.953125 -11.566406 4.484375 -10.703125 C 4.023438 -9.847656 3.796875 -8.847656 3.796875 -7.703125 C 3.796875 -6.523438 4.023438 -5.503906 4.484375 -4.640625 C 4.953125 -3.773438 5.578125 -3.113281 6.359375 -2.65625 C 7.140625 -2.207031 8.003906 -1.984375 8.953125 -1.984375 C 9.898438 -1.984375 10.769531 -2.207031 11.5625 -2.65625 C 12.351562 -3.113281 12.976562 -3.773438 13.4375 -4.640625 C 13.90625 -5.503906 14.140625 -6.515625 14.140625 -7.671875 Z M 14.140625 -7.671875 "/></g></g></g><g fill="#737373" fill-opacity="1"><g transform="translate(150.999617, 40.414135)"><g><path d="M 8.453125 -15.53125 C 9.773438 -15.53125 10.929688 -15.242188 11.921875 -14.671875 C 12.921875 -14.097656 13.660156 -13.375 14.140625 -12.5 L 14.140625 -15.28125 L 16.703125 -15.28125 L 16.703125 0.328125 C 16.703125 1.722656 16.40625 2.960938 15.8125 4.046875 C 15.21875 5.140625 14.367188 5.992188 13.265625 6.609375 C 12.160156 7.222656 10.875 7.53125 9.40625 7.53125 C 7.394531 7.53125 5.71875 7.054688 4.375 6.109375 C 3.039062 5.160156 2.253906 3.867188 2.015625 2.234375 L 4.515625 2.234375 C 4.796875 3.160156 5.375 3.90625 6.25 4.46875 C 7.125 5.039062 8.175781 5.328125 9.40625 5.328125 C 10.789062 5.328125 11.925781 4.890625 12.8125 4.015625 C 13.695312 3.140625 14.140625 1.910156 14.140625 0.328125 L 14.140625 -2.875 C 13.640625 -1.976562 12.894531 -1.234375 11.90625 -0.640625 C 10.925781 -0.046875 9.773438 0.25 8.453125 0.25 C 7.097656 0.25 5.863281 -0.0820312 4.75 -0.75 C 3.644531 -1.414062 2.773438 -2.351562 2.140625 -3.5625 C 1.515625 -4.78125 1.203125 -6.160156 1.203125 -7.703125 C 1.203125 -9.265625 1.515625 -10.632812 2.140625 -11.8125 C 2.773438 -12.988281 3.644531 -13.898438 4.75 -14.546875 C 5.863281 -15.203125 7.097656 -15.53125 8.453125 -15.53125 Z M 14.140625 -7.671875 C 14.140625 -8.828125 13.90625 -9.832031 13.4375 -10.6875 C 12.976562 -11.539062 12.351562 -12.191406 11.5625 -12.640625 C 10.769531 -13.097656 9.898438 -13.328125 8.953125 -13.328125 C 8.003906 -13.328125 7.140625 -13.101562 6.359375 -12.65625 C 5.578125 -12.21875 4.953125 -11.566406 4.484375 -10.703125 C 4.023438 -9.847656 3.796875 -8.847656 3.796875 -7.703125 C 3.796875 -6.523438 4.023438 -5.503906 4.484375 -4.640625 C 4.953125 -3.773438 5.578125 -3.113281 6.359375 -2.65625 C 7.140625 -2.207031 8.003906 -1.984375 8.953125 -1.984375 C 9.898438 -1.984375 10.769531 -2.207031 11.5625 -2.65625 C 12.351562 -3.113281 12.976562 -3.773438 13.4375 -4.640625 C 13.90625 -5.503906 14.140625 -6.515625 14.140625 -7.671875 Z M 14.140625 -7.671875 "/></g></g></g><g fill="#737373" fill-opacity="1"><g transform="translate(169.851103, 40.414135)"><g><path d="M 1.203125 -7.703125 C 1.203125 -9.265625 1.515625 -10.632812 2.140625 -11.8125 C 2.773438 -12.988281 3.644531 -13.898438 4.75 -14.546875 C 5.863281 -15.203125 7.097656 -15.53125 8.453125 -15.53125 C 9.785156 -15.53125 10.945312 -15.242188 11.9375 -14.671875 C 12.925781 -14.097656 13.660156 -13.375 14.140625 -12.5 L 14.140625 -15.28125 L 16.703125 -15.28125 L 16.703125 0 L 14.140625 0 L 14.140625 -2.84375 C 13.640625 -1.945312 12.890625 -1.207031 11.890625 -0.625 C 10.898438 -0.0390625 9.742188 0.25 8.421875 0.25 C 7.066406 0.25 5.835938 -0.0820312 4.734375 -0.75 C 3.640625 -1.414062 2.773438 -2.351562 2.140625 -3.5625 C 1.515625 -4.78125 1.203125 -6.160156 1.203125 -7.703125 Z M 14.140625 -7.671875 C 14.140625 -8.828125 13.90625 -9.832031 13.4375 -10.6875 C 12.976562 -11.539062 12.351562 -12.191406 11.5625 -12.640625 C 10.769531 -13.097656 9.898438 -13.328125 8.953125 -13.328125 C 8.003906 -13.328125 7.140625 -13.101562 6.359375 -12.65625 C 5.578125 -12.21875 4.953125 -11.566406 4.484375 -10.703125 C 4.023438 -9.847656 3.796875 -8.847656 3.796875 -7.703125 C 3.796875 -6.523438 4.023438 -5.503906 4.484375 -4.640625 C 4.953125 -3.773438 5.578125 -3.113281 6.359375 -2.65625 C 7.140625 -2.207031 8.003906 -1.984375 8.953125 -1.984375 C 9.898438 -1.984375 10.769531 -2.207031 11.5625 -2.65625 C 12.351562 -3.113281 12.976562 -3.773438 13.4375 -4.640625 C 13.90625 -5.503906 14.140625 -6.515625 14.140625 -7.671875 Z M 14.140625 -7.671875 "/></g></g></g></svg>